<?xml version="1.0" encoding="UTF-8"?>
<svg xmlns:xlink="http://www.w3.org/1999/xlink" xmlns="http://www.w3.org/2000/svg" width="300" height="170" viewBox="0 0 300 170" role="img" aria-label="Segunda persona arreando las aves hacia el lado que se asperja"><defs><symbol id="gallina" viewBox="0 0 44 46">
    <g fill="none" stroke="#1b5e20" stroke-width="1.7" stroke-linecap="round" stroke-linejoin="round">
      <path d="M6 20 Q1 13 3 11 Q6 13 8 17"/>
      <ellipse cx="19" cy="26" rx="13.5" ry="9.5"/>
      <path d="M28 19 Q30 14 31 11"/>
      <circle cx="32" cy="12" r="5.6"/>
      <path d="M29 6.6 Q30 4 31.4 6.2 Q32.6 3.4 34 6 Q35.4 4 36 6.8"/>
      <path d="M37.4 11 L41.6 12.6 L37.4 14.4"/>
      <path d="M33 17.4 Q34.6 19.6 32.6 20.4"/>
      <path d="M15 35 L14 43 M13 43 L10 43.6 M13 43 L16 43.6"/>
      <path d="M24 35 L25 43 M24 43 L21 43.6 M24 43 L27 43.6"/>
      <path d="M14 24 Q19 21 24 24"/>
    </g>
    <circle cx="33.6" cy="11" r="1.1" fill="#1b5e20"/>
  </symbol></defs>
            <g fill="none" stroke="#1b5e20" stroke-width="2.4" stroke-linecap="round" stroke-linejoin="round">
              <circle cx="52" cy="34" r="10"/>
              <path d="M52 44 v34"/>
              <path d="M52 52 l16 8"/>
              <path d="M52 78 l-10 28 M52 78 l10 28"/>
              <path d="M68 60 h44"/>
            </g>
            <g stroke="#1565c0" stroke-width="1.8" stroke-linecap="round" opacity=".8" fill="none">
              <path d="M114 60 l30 -8 M114 60 l32 4 M114 60 l28 14"/>
            </g>
            <g fill="#1565c0" opacity=".5">
              <circle cx="152" cy="50" r="3"/><circle cx="164" cy="60" r="2.6"/><circle cx="150" cy="72" r="2.8"/>
            </g>
            <g fill="none" stroke="#1b5e20" stroke-width="2.4" stroke-linecap="round" stroke-linejoin="round">
              <circle cx="256" cy="34" r="10"/>
              <path d="M256 44 v34"/>
              <path d="M256 52 l-20 12 M256 52 l14 14"/>
              <path d="M256 78 l-10 28 M256 78 l10 28"/>
            </g>
            <path d="M228 96 L184 104" fill="none" stroke="#ef6c00" stroke-width="2.6" stroke-linecap="round"/>
            <path d="M184 104 l11 -5 l1 10" fill="none" stroke="#ef6c00" stroke-width="2.6" stroke-linecap="round" stroke-linejoin="round"/>
            <text x="206" y="86" font-size="10.5" font-weight="800" fill="#ef6c00" text-anchor="middle">arrea</text>
            <g style="color:var(--verde)">
              <use href="#gallina" x="150" y="112" width="36" height="38"/>
              <use href="#gallina" x="192" y="112" width="36" height="38"/>
            </g>
          </svg>
